<mxfile host="app.diagrams.net" modified="2023-05-12T06:24:23.850Z" agent="Mozilla/5.0 (Windows NT 10.0; Win64; x64) AppleWebKit/537.36 (KHTML, like Gecko) Chrome/113.0.0.0 Safari/537.36" etag="0QodL6bVNZvow6FPUvl9" version="21.2.9" type="github">
  <diagram name="第 1 页" id="PjRFzeqVxdwlIN-WW2m-">
    <mxGraphModel dx="2074" dy="1124" grid="0" gridSize="10" guides="1" tooltips="1" connect="1" arrows="1" fold="1" page="1" pageScale="1" pageWidth="827" pageHeight="1169" background="none" math="0" shadow="0">
      <root>
        <mxCell id="0" />
        <mxCell id="1" parent="0" />
        <mxCell id="fdkuDNpNpMmcPTPjz3AJ-32" style="edgeStyle=orthogonalEdgeStyle;rounded=0;orthogonalLoop=1;jettySize=auto;html=1;exitX=0.5;exitY=1;exitDx=0;exitDy=0;" edge="1" parent="1" source="fdkuDNpNpMmcPTPjz3AJ-2">
          <mxGeometry relative="1" as="geometry">
            <mxPoint x="175" y="408.666748046875" as="targetPoint" />
          </mxGeometry>
        </mxCell>
        <mxCell id="fdkuDNpNpMmcPTPjz3AJ-2" value="&lt;font color=&quot;#000000&quot;&gt;用户报名&lt;/font&gt;" style="rounded=1;whiteSpace=wrap;html=1;fillColor=#dae8fc;strokeColor=#6c8ebf;" vertex="1" parent="1">
          <mxGeometry x="115" y="237" width="120" height="60" as="geometry" />
        </mxCell>
        <mxCell id="fdkuDNpNpMmcPTPjz3AJ-3" value="&lt;font color=&quot;#000000&quot;&gt;活动1&lt;/font&gt;" style="rounded=1;whiteSpace=wrap;html=1;fillColor=#dae8fc;strokeColor=#6c8ebf;" vertex="1" parent="1">
          <mxGeometry x="345" y="170" width="120" height="60" as="geometry" />
        </mxCell>
        <mxCell id="fdkuDNpNpMmcPTPjz3AJ-4" value="&lt;font color=&quot;#000000&quot;&gt;活动2&lt;/font&gt;" style="rounded=1;whiteSpace=wrap;html=1;fillColor=#dae8fc;strokeColor=#6c8ebf;" vertex="1" parent="1">
          <mxGeometry x="514" y="170" width="120" height="60" as="geometry" />
        </mxCell>
        <mxCell id="fdkuDNpNpMmcPTPjz3AJ-5" value="" style="shape=table;startSize=0;container=1;collapsible=0;childLayout=tableLayout;strokeColor=#10739e;fillColor=#b1ddf0;" vertex="1" parent="1">
          <mxGeometry x="345" y="252" width="117" height="80" as="geometry" />
        </mxCell>
        <mxCell id="fdkuDNpNpMmcPTPjz3AJ-6" value="" style="shape=tableRow;horizontal=0;startSize=0;swimlaneHead=0;swimlaneBody=0;top=0;left=0;bottom=0;right=0;collapsible=0;dropTarget=0;fillColor=none;points=[[0,0.5],[1,0.5]];portConstraint=eastwest;fontColor=#000000;" vertex="1" parent="fdkuDNpNpMmcPTPjz3AJ-5">
          <mxGeometry width="117" height="40" as="geometry" />
        </mxCell>
        <mxCell id="fdkuDNpNpMmcPTPjz3AJ-7" value="23年5月12日" style="shape=partialRectangle;html=1;whiteSpace=wrap;connectable=0;overflow=hidden;fillColor=none;top=0;left=0;bottom=0;right=0;pointerEvents=1;fontColor=#000000;" vertex="1" parent="fdkuDNpNpMmcPTPjz3AJ-6">
          <mxGeometry width="117" height="40" as="geometry">
            <mxRectangle width="117" height="40" as="alternateBounds" />
          </mxGeometry>
        </mxCell>
        <mxCell id="fdkuDNpNpMmcPTPjz3AJ-8" value="" style="shape=tableRow;horizontal=0;startSize=0;swimlaneHead=0;swimlaneBody=0;top=0;left=0;bottom=0;right=0;collapsible=0;dropTarget=0;fillColor=none;points=[[0,0.5],[1,0.5]];portConstraint=eastwest;fontColor=#000000;" vertex="1" parent="fdkuDNpNpMmcPTPjz3AJ-5">
          <mxGeometry y="40" width="117" height="40" as="geometry" />
        </mxCell>
        <mxCell id="fdkuDNpNpMmcPTPjz3AJ-9" value="23年12月12日" style="shape=partialRectangle;html=1;whiteSpace=wrap;connectable=0;overflow=hidden;fillColor=none;top=0;left=0;bottom=0;right=0;pointerEvents=1;fontColor=#000000;" vertex="1" parent="fdkuDNpNpMmcPTPjz3AJ-8">
          <mxGeometry width="117" height="40" as="geometry">
            <mxRectangle width="117" height="40" as="alternateBounds" />
          </mxGeometry>
        </mxCell>
        <mxCell id="fdkuDNpNpMmcPTPjz3AJ-10" value="" style="shape=table;startSize=0;container=1;collapsible=0;childLayout=tableLayout;strokeColor=#10739e;fillColor=#b1ddf0;" vertex="1" parent="1">
          <mxGeometry x="517" y="248" width="117" height="80" as="geometry" />
        </mxCell>
        <mxCell id="fdkuDNpNpMmcPTPjz3AJ-11" value="" style="shape=tableRow;horizontal=0;startSize=0;swimlaneHead=0;swimlaneBody=0;top=0;left=0;bottom=0;right=0;collapsible=0;dropTarget=0;fillColor=none;points=[[0,0.5],[1,0.5]];portConstraint=eastwest;fontColor=#000000;" vertex="1" parent="fdkuDNpNpMmcPTPjz3AJ-10">
          <mxGeometry width="117" height="40" as="geometry" />
        </mxCell>
        <mxCell id="fdkuDNpNpMmcPTPjz3AJ-12" value="23年6月12日" style="shape=partialRectangle;html=1;whiteSpace=wrap;connectable=0;overflow=hidden;fillColor=none;top=0;left=0;bottom=0;right=0;pointerEvents=1;fontColor=#000000;" vertex="1" parent="fdkuDNpNpMmcPTPjz3AJ-11">
          <mxGeometry width="117" height="40" as="geometry">
            <mxRectangle width="117" height="40" as="alternateBounds" />
          </mxGeometry>
        </mxCell>
        <mxCell id="fdkuDNpNpMmcPTPjz3AJ-13" value="" style="shape=tableRow;horizontal=0;startSize=0;swimlaneHead=0;swimlaneBody=0;top=0;left=0;bottom=0;right=0;collapsible=0;dropTarget=0;fillColor=none;points=[[0,0.5],[1,0.5]];portConstraint=eastwest;fontColor=#000000;" vertex="1" parent="fdkuDNpNpMmcPTPjz3AJ-10">
          <mxGeometry y="40" width="117" height="40" as="geometry" />
        </mxCell>
        <mxCell id="fdkuDNpNpMmcPTPjz3AJ-14" value="24年01月12日" style="shape=partialRectangle;html=1;whiteSpace=wrap;connectable=0;overflow=hidden;fillColor=none;top=0;left=0;bottom=0;right=0;pointerEvents=1;fontColor=#000000;" vertex="1" parent="fdkuDNpNpMmcPTPjz3AJ-13">
          <mxGeometry width="117" height="40" as="geometry">
            <mxRectangle width="117" height="40" as="alternateBounds" />
          </mxGeometry>
        </mxCell>
        <mxCell id="fdkuDNpNpMmcPTPjz3AJ-15" value="&lt;pre&gt;活动存在交叉&lt;/pre&gt;" style="text;html=1;align=center;verticalAlign=middle;resizable=0;points=[];autosize=1;strokeColor=none;fillColor=none;fontColor=#000000;" vertex="1" parent="1">
          <mxGeometry x="432" y="341" width="90" height="50" as="geometry" />
        </mxCell>
        <mxCell id="fdkuDNpNpMmcPTPjz3AJ-21" value="允许报名&lt;br&gt;并确定好活动时间段" style="rounded=1;whiteSpace=wrap;html=1;fillColor=#dae8fc;strokeColor=#6c8ebf;" vertex="1" parent="1">
          <mxGeometry x="424" y="409" width="120" height="60" as="geometry" />
        </mxCell>
        <mxCell id="fdkuDNpNpMmcPTPjz3AJ-22" value="若上一个活动未结束&lt;br&gt;则不允许报名" style="rounded=1;whiteSpace=wrap;html=1;fillColor=#dae8fc;strokeColor=#6c8ebf;" vertex="1" parent="1">
          <mxGeometry x="264" y="555" width="120" height="60" as="geometry" />
        </mxCell>
        <mxCell id="fdkuDNpNpMmcPTPjz3AJ-28" style="edgeStyle=orthogonalEdgeStyle;rounded=0;orthogonalLoop=1;jettySize=auto;html=1;entryX=0;entryY=0.5;entryDx=0;entryDy=0;" edge="1" parent="1" source="fdkuDNpNpMmcPTPjz3AJ-25" target="fdkuDNpNpMmcPTPjz3AJ-21">
          <mxGeometry relative="1" as="geometry" />
        </mxCell>
        <mxCell id="fdkuDNpNpMmcPTPjz3AJ-30" value="已报名" style="edgeStyle=orthogonalEdgeStyle;rounded=0;orthogonalLoop=1;jettySize=auto;html=1;exitX=0.5;exitY=1;exitDx=0;exitDy=0;entryX=0.5;entryY=0;entryDx=0;entryDy=0;" edge="1" parent="1" source="fdkuDNpNpMmcPTPjz3AJ-25" target="fdkuDNpNpMmcPTPjz3AJ-22">
          <mxGeometry relative="1" as="geometry" />
        </mxCell>
        <mxCell id="fdkuDNpNpMmcPTPjz3AJ-25" value="是否已经报名" style="rhombus;whiteSpace=wrap;html=1;fontSize=12;strokeColor=#d6b656;fillColor=#fff2cc;" vertex="1" parent="1">
          <mxGeometry x="284" y="399" width="80" height="80" as="geometry" />
        </mxCell>
        <mxCell id="fdkuDNpNpMmcPTPjz3AJ-27" style="edgeStyle=orthogonalEdgeStyle;rounded=0;orthogonalLoop=1;jettySize=auto;html=1;entryX=0;entryY=0.5;entryDx=0;entryDy=0;" edge="1" parent="1" source="fdkuDNpNpMmcPTPjz3AJ-26" target="fdkuDNpNpMmcPTPjz3AJ-25">
          <mxGeometry relative="1" as="geometry" />
        </mxCell>
        <mxCell id="fdkuDNpNpMmcPTPjz3AJ-34" style="edgeStyle=orthogonalEdgeStyle;rounded=0;orthogonalLoop=1;jettySize=auto;html=1;" edge="1" parent="1" source="fdkuDNpNpMmcPTPjz3AJ-26" target="fdkuDNpNpMmcPTPjz3AJ-33">
          <mxGeometry relative="1" as="geometry" />
        </mxCell>
        <mxCell id="fdkuDNpNpMmcPTPjz3AJ-26" value="&lt;font color=&quot;#000000&quot;&gt;参与同一个活动&lt;/font&gt;" style="rounded=1;whiteSpace=wrap;html=1;fillColor=#dae8fc;strokeColor=#6c8ebf;" vertex="1" parent="1">
          <mxGeometry x="115" y="409" width="120" height="60" as="geometry" />
        </mxCell>
        <mxCell id="fdkuDNpNpMmcPTPjz3AJ-31" value="此活动时间段&lt;br&gt;影响着下一次报名时机" style="rounded=0;whiteSpace=wrap;html=1;fontSize=12;strokeColor=#82b366;fillColor=#d5e8d4;" vertex="1" parent="1">
          <mxGeometry x="424" y="472" width="125" height="60" as="geometry" />
        </mxCell>
        <mxCell id="fdkuDNpNpMmcPTPjz3AJ-38" style="edgeStyle=orthogonalEdgeStyle;rounded=0;orthogonalLoop=1;jettySize=auto;html=1;entryX=0;entryY=0.5;entryDx=0;entryDy=0;" edge="1" parent="1" source="fdkuDNpNpMmcPTPjz3AJ-33" target="fdkuDNpNpMmcPTPjz3AJ-37">
          <mxGeometry relative="1" as="geometry" />
        </mxCell>
        <mxCell id="fdkuDNpNpMmcPTPjz3AJ-33" value="&lt;font color=&quot;#000000&quot;&gt;参与不同活动&lt;/font&gt;" style="rounded=1;whiteSpace=wrap;html=1;fillColor=#dae8fc;strokeColor=#6c8ebf;" vertex="1" parent="1">
          <mxGeometry x="115" y="732" width="120" height="60" as="geometry" />
        </mxCell>
        <mxCell id="fdkuDNpNpMmcPTPjz3AJ-35" value="1" style="ellipse;whiteSpace=wrap;html=1;aspect=fixed;fillColor=#f8cecc;strokeColor=#b85450;" vertex="1" parent="1">
          <mxGeometry x="98" y="383" width="30" height="30" as="geometry" />
        </mxCell>
        <mxCell id="fdkuDNpNpMmcPTPjz3AJ-36" value="2" style="ellipse;whiteSpace=wrap;html=1;aspect=fixed;fillColor=#f8cecc;strokeColor=#b85450;" vertex="1" parent="1">
          <mxGeometry x="98" y="705" width="30" height="30" as="geometry" />
        </mxCell>
        <mxCell id="fdkuDNpNpMmcPTPjz3AJ-37" value="两个不同活动&lt;br&gt;应当互不影响" style="rounded=1;whiteSpace=wrap;html=1;fillColor=#dae8fc;strokeColor=#6c8ebf;" vertex="1" parent="1">
          <mxGeometry x="359" y="732" width="120" height="60" as="geometry" />
        </mxCell>
        <mxCell id="fdkuDNpNpMmcPTPjz3AJ-39" value="活动id,默认应当&lt;br&gt;由前端传递&lt;br&gt;当前端未传递时,&lt;br&gt;后端读取默认值" style="rounded=0;whiteSpace=wrap;html=1;fontSize=12;strokeColor=#82b366;fillColor=#d5e8d4;" vertex="1" parent="1">
          <mxGeometry x="112.5" y="810" width="125" height="74" as="geometry" />
        </mxCell>
      </root>
    </mxGraphModel>
  </diagram>
</mxfile>
